<svg width="61" height="19" viewBox="0 0 61 19" fill="none" xmlns="http://www.w3.org/2000/svg">
<path d="M4.98672 10.4412H3.74004C3.51044 10.4412 3.32448 10.6666 3.32448 10.9448V16.9886C3.32448 17.2669 3.51044 17.4923 3.74004 17.4923H4.98672C5.21631 17.4923 5.40228 17.2669 5.40228 16.9886V10.9448C5.40228 10.6666 5.21631 10.4412 4.98672 10.4412ZM1.66224 13.4631H0.41556C0.185963 13.4631 0 13.6884 0 13.9667V16.9886C0 17.2669 0.185963 17.4923 0.41556 17.4923H1.66224C1.89184 17.4923 2.0778 17.2669 2.0778 16.9886V13.9667C2.0778 13.6884 1.89184 13.4631 1.66224 13.4631ZM8.3112 7.41927H7.06452C6.83492 7.41927 6.64896 7.64466 6.64896 7.92292V16.9886C6.64896 17.2669 6.83492 17.4923 7.06452 17.4923H8.3112C8.54079 17.4923 8.72676 17.2669 8.72676 16.9886V7.92292C8.72676 7.64466 8.54079 7.41927 8.3112 7.41927ZM11.6357 4.39738H10.389C10.1594 4.39738 9.97344 4.62276 9.97344 4.90103V16.9886C9.97344 17.2669 10.1594 17.4923 10.389 17.4923H11.6357C11.8653 17.4923 12.0512 17.2669 12.0512 16.9886V4.90103C12.0512 4.62276 11.8653 4.39738 11.6357 4.39738ZM14.9602 1.37549H13.7135C13.4839 1.37549 13.2979 1.60087 13.2979 1.87913V16.9886C13.2979 17.2669 13.4839 17.4923 13.7135 17.4923H14.9602C15.1897 17.4923 15.3757 17.2669 15.3757 16.9886V1.87913C15.3757 1.60087 15.1897 1.37549 14.9602 1.37549Z" fill="black"/>
<path d="M38.0556 6.25083C33.4541 1.09252 26.2974 1.0944 21.6977 6.25083C21.5247 6.44473 21.5213 6.77305 21.6886 6.97419L22.5779 8.0435C22.7373 8.23552 22.9939 8.23961 23.1596 8.05546C26.9496 3.84748 32.8032 3.84653 36.5939 8.05546C36.7596 8.23961 37.0162 8.2352 37.1757 8.0435L38.065 6.97419C38.232 6.77305 38.2286 6.44473 38.0556 6.25083ZM29.8767 12.4558C28.9585 12.4558 28.2144 13.3576 28.2144 14.4704C28.2144 15.5831 28.9585 16.485 29.8767 16.485C30.7948 16.485 31.5389 15.5831 31.5389 14.4704C31.5389 13.3576 30.7948 12.4558 29.8767 12.4558ZM35.1405 9.82453C32.1469 6.61597 27.603 6.61943 24.6128 9.82453C24.4336 10.0165 24.4279 10.3499 24.598 10.5532L25.4925 11.6232C25.6483 11.8095 25.8992 11.8221 26.0652 11.6484C28.2456 9.36401 31.5127 9.36904 33.6879 11.6484C33.8538 11.8221 34.1047 11.8099 34.2605 11.6232L35.155 10.5532C35.3254 10.3499 35.3194 10.0162 35.1405 9.82453Z" fill="black"/>
<path d="M58.5064 6.41203V8.42662H59.3375V10.4412H58.5064V12.4558H46.0396V6.41203H58.5064ZM58.9219 4.39743H45.624C44.9355 4.39743 44.3773 5.07389 44.3773 5.90838V12.9595C44.3773 13.7939 44.9355 14.4704 45.624 14.4704H58.9219C59.6105 14.4704 60.1686 13.7939 60.1686 12.9595V12.4558H60.3764C60.7207 12.4558 60.9997 12.1176 60.9997 11.7003V7.1675C60.9997 6.75026 60.7207 6.41203 60.3764 6.41203H60.1686V5.90838C60.1686 5.07389 59.6105 4.39743 58.9219 4.39743ZM55.1819 7.41933H46.8707V11.4485H55.1819V7.41933Z" fill="black"/>
</svg>
