<svg width="100" height="100" viewBox="0 0 100 100" fill="none" xmlns="http://www.w3.org/2000/svg">
<path d="M93.1173 56.0609C99.1033 44.6578 86.9361 36.75 71.0283 32.8719C72.2251 30.1516 72.572 26.5906 69.197 23.1906C64.8689 18.8391 67.7454 12.5 67.7454 12.5C67.7454 12.5 58.6611 20.8797 64.397 26.6578C66.5126 28.7875 67.6142 30.6578 68.1408 32.2219C63.7492 31.3167 59.3025 30.7039 54.8298 30.3875C56.1658 26.7563 56.2954 22.1953 52.0861 17.8281C46.3236 11.8422 50.1611 3.125 50.1611 3.125C50.1611 3.125 38.047 14.6469 45.6954 22.5906C48.4876 25.4875 49.9579 28.0375 50.6704 30.175C45.9298 30.0328 41.3673 30.2406 37.3142 30.8078C37.797 28.4719 37.3939 25.7859 34.8173 23.1922C30.4892 18.8406 33.3673 12.5 33.3673 12.5C33.3673 12.5 24.2814 20.8797 30.0189 26.6578C31.8158 28.4672 32.8689 30.0828 33.4736 31.4906C32.7892 31.6406 32.1251 31.8031 31.4861 31.9797C11.7329 30.1312 3.11732 34.2125 7.05326 42.2188C0.184507 49.0875 2.76576 56.9266 11.3611 62.925C15.8454 81.3953 17.0001 96.875 50.7751 96.875C80.9126 96.875 85.0767 84.5469 88.8095 68.7688C100.01 66.5391 97.6236 61.1703 93.1173 56.0609ZM90.3251 54.2156C86.5736 62.2156 70.2923 68.2375 50.7751 68.2375C31.2595 68.2375 14.9783 62.2156 11.2251 54.2156C11.1454 53.9781 11.0689 53.7313 10.9923 53.4906C12.7798 48.9563 18.5892 45.0219 26.7486 42.3875C24.8314 44.2406 24.4329 47.0078 29.4783 47.9781C30.922 48.2562 34.8861 47.2938 33.1533 42.375C32.9111 41.6875 32.5158 41.2266 32.0298 40.9484C37.6361 39.6656 44.0001 38.9266 50.7751 38.9266C51.5345 38.9266 52.2798 38.9531 53.0283 38.9703C49.1189 40.3578 45.9298 44.6328 53.9126 45.8937C55.6751 46.1719 60.5142 45.2094 58.3986 40.2906C58.2137 39.8522 57.9175 39.4698 57.5392 39.1813C65.0189 39.7313 71.7954 41.1719 77.2736 43.2484C72.4564 42.9797 67.1126 45.9484 75.6704 50.1281C77.5064 51.025 83.0845 51.8484 82.3173 46.4172C82.2618 46.0248 82.1233 45.6487 81.9111 45.3141C86.2908 47.6219 89.3454 50.4203 90.5564 53.4906L90.3251 54.2156Z" fill="#4A6BDA"/>
<path d="M40.3704 57.564C45.422 57.564 48.7908 52.9968 51.4298 51.2093C55.1173 48.7093 64.3892 47.7343 56.2236 47.5374C48.4783 47.3515 38.9158 53.639 32.5251 53.2061C21.9439 52.4874 32.7814 57.564 40.3704 57.564ZM51.2861 66.8952C53.0705 67.239 57.9751 66.0483 55.8298 59.9655C53.4064 53.0827 38.7361 64.4796 51.2861 66.8952ZM23.5111 51.8405C21.8064 49.4343 19.3345 46.3827 18.3111 47.9718C16.9126 50.1452 16.472 54.5186 17.4876 54.7124C25.4501 56.239 24.8923 53.789 23.5111 51.8405ZM69.8001 52.8155C71.2361 51.0374 68.3689 46.7577 66.5283 47.5061C63.647 48.678 61.9861 47.8843 60.7205 49.6624C57.7564 53.8265 67.8486 55.2296 69.8001 52.8155ZM68.9033 57.9108C66.8376 56.9999 67.3251 60.0515 64.2736 57.603C62.0892 55.8499 57.3892 60.2718 60.4892 63.2749C63.9392 66.6171 64.858 63.4405 66.308 63.7077C69.2548 64.2499 74.322 60.3015 68.9033 57.9108ZM34.5564 58.9546C33.4798 57.8952 32.0361 59.1733 31.2205 60.7327C30.4126 60.3358 29.7548 60.2436 29.7548 60.2436C29.1376 58.4843 27.3017 57.278 27.3017 57.278C27.3017 57.278 27.4689 59.1077 27.7111 59.9999C25.683 59.2796 25.6204 55.6546 25.6204 55.6546C25.6204 55.6546 24.2595 56.4686 24.3829 57.8515C22.1501 56.0499 20.2486 56.8921 20.2486 56.8921C20.2486 56.8921 23.0814 58.4858 23.472 59.5608C21.8814 59.6843 20.9533 60.2343 20.4126 61.514C20.4142 61.5249 23.5564 60.0186 25.8814 61.1061C24.9642 61.8561 25.4204 63.7296 25.4204 63.7296C27.5845 61.4358 29.3126 61.6811 30.6954 62.0921C30.5283 62.7936 30.5392 63.4343 30.8361 63.8233C33.2345 66.9765 41.5892 66.2671 43.833 63.9358C46.5501 61.1155 39.0001 63.328 34.5564 58.9546Z" fill="#4A6BDA"/>
<path d="M40.4576 47.078C39.7467 48.5062 39.742 49.5843 40.5639 50.7062C40.5748 50.7093 40.8951 47.2405 43.0217 45.803C43.1951 46.9749 45.0357 47.5437 45.0357 47.5437C43.5639 42.3312 47.8607 42.0593 47.8404 40.189C45.5623 40.3812 44.2686 42.0374 44.2686 42.0374C42.442 41.664 40.4623 42.6186 40.4623 42.6186C40.4623 42.6186 42.1201 43.414 43.0092 43.6655C41.3498 45.0358 38.2061 43.228 38.2061 43.228C38.2061 43.228 38.2061 44.8155 39.4561 45.4171C36.7639 46.4093 36.5107 48.4718 36.5107 48.4718C36.5107 48.4718 39.3326 46.8608 40.4576 47.078ZM80.3811 54.1968C81.0279 52.9687 80.0842 51.6921 80.0842 51.6921C80.0842 51.6921 78.6326 55.0155 76.4842 54.9015C77.0498 54.1702 77.9092 52.5452 77.9092 52.5452C77.9092 52.5452 75.7498 52.9562 74.5029 54.3421C74.5029 54.3421 72.4779 53.7812 70.5342 54.9812C71.6311 56.4968 75.2467 54.1577 77.1639 59.2233C77.1639 59.2233 78.3045 57.6718 77.7467 56.6265C80.3123 56.5155 82.6342 59.1124 82.642 59.103C82.6326 57.7124 81.9889 56.8499 80.5654 56.1249C81.3404 55.2827 84.5686 54.8999 84.5686 54.8999C84.5686 54.8999 83.1373 53.3921 80.3811 54.1968Z" fill="#4A6BDA"/>
</svg>
