<svg width="100" height="100" viewBox="0 0 100 100" fill="none" xmlns="http://www.w3.org/2000/svg">
<path fill-rule="evenodd" clip-rule="evenodd" d="M25.1414 41.9728L20.0581 23.0083L31.7289 12.0978L35.4164 25.8541V18.3124L49.9998 13.8541V21.9645L62.6789 15.8958L62.5352 17.9999L65.056 8.33325H79.8831L74.1144 27.5624L77.7956 26.6208L73.3227 43.3166C73.6123 43.0353 73.906 42.752 74.1977 42.4624C74.5934 42.0615 75.1047 41.7947 75.6599 41.6996C76.2151 41.6044 76.7861 41.6857 77.2927 41.932C77.7993 42.1783 78.2159 42.5771 78.484 43.0725C78.7521 43.5679 78.8582 44.1349 78.7873 44.6937L73.3748 88.0166C73.2488 89.0245 72.759 89.9517 71.9975 90.6238C71.2359 91.296 70.2551 91.6668 69.2394 91.6666H30.7602C29.7448 91.6663 28.7645 91.2952 28.0034 90.6231C27.2423 89.951 26.7528 89.0241 26.6269 88.0166L21.2123 44.7041C21.1517 44.2153 21.2259 43.7192 21.4268 43.2694C21.6278 42.8197 21.9478 42.4335 22.3524 42.1525C22.7569 41.8715 23.2306 41.7064 23.7222 41.6751C24.2137 41.6438 24.7045 41.7475 25.1414 41.9749V41.9728ZM65.8144 34.9312L71.731 33.1562L67.6477 48.3895C65.3269 50.2791 63.1123 51.827 60.9664 53.0291L65.8144 34.9312ZM55.8269 55.2832L58.0373 22.7353L52.6414 25.3166L50.5456 56.1707C52.3388 56.1231 54.1165 55.8243 55.8269 55.2832ZM39.5831 53.2166C41.7227 54.3708 43.7935 55.1895 45.8331 55.6687V19.4791L39.5831 21.3916V53.2145V53.2166ZM30.8039 47.0082C32.2865 48.2783 33.8256 49.4809 35.4164 50.6124V41.9416L29.5019 19.8833L24.731 24.3437L30.8039 47.0082ZM69.4039 28.7666L63.6498 30.2374L68.2748 12.4999H74.2831L69.4039 28.7666Z" fill="#4A6BDA"/>
</svg>
