<svg width="100" height="100" viewBox="0 0 100 100" fill="none" xmlns="http://www.w3.org/2000/svg">
<path d="M22.6667 33.1666L24.8333 30.9583C27.25 28.5416 31.25 28.5416 33.75 31.1249L33.8333 31.2499C35.875 33.3333 38.5833 34.3333 41.5417 34.6249C45.5833 34.9999 49.5 37.1666 52.0833 41.0832C54.9167 45.5832 54.875 51.5832 51.9167 56.0416C50.8009 57.8061 49.3004 59.2953 47.5275 60.3978C45.7546 61.5003 43.7553 62.1875 41.6793 62.408C39.6033 62.6284 37.5043 62.3763 35.5394 61.6707C33.5746 60.9651 31.7948 59.8241 30.3333 58.3333C28 56.0416 26.6667 53.0833 26.3333 49.9999C26 46.9583 24.7917 44.0832 22.6667 41.9582C20.25 39.5833 20.25 35.5833 22.6667 33.1666ZM40.1667 66.6666C35.2917 66.6666 30.75 64.7916 27.375 61.3333C24.4583 58.3333 22.625 54.5832 22.1667 50.4999C22.0417 49.2499 21.6667 47.6249 20.6667 46.1249C18.1667 49.5832 16.6667 53.7499 16.6667 58.3333C16.6667 65.1666 20 71.2082 25.125 74.9999H79.1667V70.8332C79.1667 55.8333 69.2083 43.1249 55.5833 38.9583C59.2917 44.7916 59.2083 52.5833 55.4167 58.3333C52.0833 63.5416 46.3333 66.6666 40.1667 66.6666ZM61.5833 31.4999H66.875C70.5 31.4999 73.6667 34.0416 73.6667 38.5833V41.6666H78.875V37.4999C78.875 31.2499 73.3333 26.4999 66.875 26.4999H61.5833C58.125 26.4999 55.1667 23.0833 55.1667 19.5833C55.1667 16.0833 58.125 13.4999 61.5833 13.4999V8.33325C55.1667 8.33325 50 13.4999 50 19.9166C50 26.3333 55.1667 31.4999 61.5833 31.4999ZM18.75 31.4583C19 31.0416 19.3333 30.6249 19.7083 30.2083L21.875 28.0416C22.25 27.6666 22.6667 27.3749 23.0833 27.0833L17.2083 21.1249C17.7917 19.9999 17.5833 18.5416 16.6667 17.5833C16.07 17.0024 15.2702 16.6774 14.4375 16.6774C13.6048 16.6774 12.805 17.0024 12.2083 17.5833C11.625 18.1666 11.3333 18.8749 11.2917 19.6249C10.5417 19.6666 9.83333 19.9583 9.25 20.5416C8.04167 21.7499 8.04167 23.7499 9.25 24.9999C10.2083 25.9166 11.625 26.1249 12.7917 25.5416L18.75 31.4583ZM76.625 18.2916C78.75 16.1666 80.0833 13.2916 80.0833 10.0833H74.875C74.875 13.5416 71.9583 16.4583 68.5 16.4583V21.6249C76.25 21.6249 82.3333 27.9583 82.3333 35.7083V45.8333H87.5V35.7083C87.5208 32.0737 86.51 28.5078 84.585 25.4249C82.66 22.3419 79.8998 19.8684 76.625 18.2916ZM20.8333 87.4999H79.1667C83.7917 87.4999 87.5 83.7916 87.5 79.1666H12.5C12.5 81.3767 13.378 83.4963 14.9408 85.0591C16.5036 86.6219 18.6232 87.4999 20.8333 87.4999Z" fill="#4A6BDA"/>
</svg>
