<svg width="78" height="78" viewBox="0 0 78 78" fill="none" xmlns="http://www.w3.org/2000/svg">
<circle cx="39" cy="39" r="39" fill="#4A6BDA"/>
<path d="M38.9678 56.5269C42.5267 55.2315 42.8712 47.2013 39.7372 38.5908C36.6033 29.9803 31.1776 24.0502 27.6187 25.3455C24.0599 26.6408 23.7154 34.6711 26.8493 43.2816C29.9833 51.8921 35.4089 57.8222 38.9678 56.5269Z" stroke="white" stroke-width="2" stroke-linecap="round" stroke-linejoin="round"/>
<path d="M38.9717 56.5214C40.5722 53.089 35.1376 47.1671 26.833 43.2946C18.5284 39.4222 10.4987 39.0654 8.8981 42.4979C7.29753 45.9303 12.7322 51.8522 21.0368 55.7247C29.3414 59.5971 37.3711 59.9539 38.9717 56.5214Z" stroke="white" stroke-width="2" stroke-linecap="round" stroke-linejoin="round"/>
<path d="M51.081 43.2842C54.2149 34.6737 53.8705 26.6435 50.3116 25.3481C46.7527 24.0528 41.3271 29.9829 38.1931 38.5934C35.0591 47.2039 35.4036 55.2342 38.9625 56.5295C42.5214 57.8248 47.947 51.8947 51.081 43.2842Z" stroke="white" stroke-width="2" stroke-linecap="round" stroke-linejoin="round"/>
<path d="M56.8979 55.7171C65.2025 51.8446 70.6372 45.9228 69.0366 42.4903C67.436 39.0579 59.4063 39.4146 51.1017 43.2871C42.7971 47.1596 37.3625 53.0814 38.963 56.5138C40.5636 59.9463 48.5933 59.5896 56.8979 55.7171Z" stroke="white" stroke-width="2" stroke-linecap="round" stroke-linejoin="round"/>
</svg>
