<svg width="390" height="365" viewBox="0 0 390 365" fill="none" xmlns="http://www.w3.org/2000/svg">
<path fill-rule="evenodd" clip-rule="evenodd" d="M199.135 0.00122586C229.762 0.165652 254.247 25.4483 281.95 41.1052C317.922 61.436 368.782 61.87 385.32 105.229C401.712 148.206 370.811 194.952 357.612 239.48C344.852 282.529 344.129 340.571 309.73 360.235C274.748 380.233 237.885 330.867 199.135 330.073C161.557 329.304 127.11 369.253 91.2516 355.76C50.902 340.578 4.19924 305.703 0.225236 255.23C-3.89669 202.877 49.6227 172.972 73.3795 128.767C89.1415 99.4381 93.6501 62.8723 115.78 40.2131C139.125 16.309 168.434 -0.163603 199.135 0.00122586Z" fill="white"/>
</svg>
